<svg xmlns="http://www.w3.org/2000/svg" viewBox="0 0 64 64" role="img" aria-label="Playoff Monkey">
  <defs>
    <radialGradient id="bg" cx="50%" cy="40%" r="60%">
      <stop offset="0%" stop-color="#1f3394"/>
      <stop offset="100%" stop-color="#05091a"/>
    </radialGradient>
  </defs>
  <circle cx="32" cy="32" r="31" fill="url(#bg)" stroke="#f5c518" stroke-width="2"/>
  <!-- basketball -->
  <circle cx="46" cy="18" r="6" fill="#ff6b3d"/>
  <path d="M40 18h12M46 12v12M41 14c3 2 7 2 10 0M41 22c3-2 7-2 10 0" stroke="#05091a" stroke-width="1" fill="none"/>
  <!-- monkey face -->
  <ellipse cx="32" cy="36" rx="16" ry="14" fill="#6b4a2e"/>
  <ellipse cx="32" cy="40" rx="10" ry="9" fill="#f3d7b1"/>
  <circle cx="20" cy="32" r="5" fill="#6b4a2e"/>
  <circle cx="44" cy="32" r="5" fill="#6b4a2e"/>
  <circle cx="20" cy="32" r="2.5" fill="#f3d7b1"/>
  <circle cx="44" cy="32" r="2.5" fill="#f3d7b1"/>
  <circle cx="27" cy="36" r="1.6" fill="#05091a"/>
  <circle cx="37" cy="36" r="1.6" fill="#05091a"/>
  <path d="M28 43c2 2 6 2 8 0" stroke="#05091a" stroke-width="1.6" fill="none" stroke-linecap="round"/>
</svg>
